HIERARCHY
ROOT Hips
{
	OFFSET 0.000000 0.000000 0.000000
	CHANNELS 6 Xposition Yposition Zposition Zrotation Xrotation Yrotation
	JOINT Spine1
	{
		OFFSET 0.000000 -0.000001 5.553894
		CHANNELS 6 Xposition Yposition Zposition Zrotation Xrotation Yrotation
		JOINT Neck
		{
			OFFSET 0.000000 -0.000001 4.427760
			CHANNELS 6 Xposition Yposition Zposition Zrotation Xrotation Yrotation
			JOINT Head
			{
				OFFSET 0.000000 -0.363272 2.815360
				CHANNELS 6 Xposition Yposition Zposition Zrotation Xrotation Yrotation
				End Site
				{
					OFFSET 0.000000 -0.000001 3.632711
				}
			}
		}
		JOINT LeftShoulder
		{
			OFFSET 0.731534 0.096024 3.575179
			CHANNELS 6 Xposition Yposition Zposition Zrotation Xrotation Yrotation
			JOINT LeftArm
			{
				OFFSET 2.610320 0.000000 0.000000
				CHANNELS 6 Xposition Yposition Zposition Zrotation Xrotation Yrotation
				JOINT LeftForeArm
				{
					OFFSET 5.118420 0.000000 0.000000
					CHANNELS 6 Xposition Yposition Zposition Zrotation Xrotation Yrotation
					JOINT LeftHand
					{
						OFFSET 4.756899 0.000000 0.000000
						CHANNELS 6 Xposition Yposition Zposition Zrotation Xrotation Yrotation
						End Site
						{
							OFFSET 2.724534 0.000000 0.000000
						}
					}
				}
			}
		}
		JOINT RightShoulder
		{
			OFFSET -0.721442 0.096024 3.575179
			CHANNELS 6 Xposition Yposition Zposition Zrotation Xrotation Yrotation
			JOINT RightArm
			{
				OFFSET -2.610320 0.000000 0.000000
				CHANNELS 6 Xposition Yposition Zposition Zrotation Xrotation Yrotation
				JOINT RightForeArm
				{
					OFFSET -5.118420 0.000000 0.000000
					CHANNELS 6 Xposition Yposition Zposition Zrotation Xrotation Yrotation
					JOINT RightHand
					{
						OFFSET -4.756900 0.000000 0.000000
						CHANNELS 6 Xposition Yposition Zposition Zrotation Xrotation Yrotation
						End Site
						{
							OFFSET -2.724534 0.000000 0.000000
						}
					}
				}
			}
		}
	}
	JOINT LeftUpLeg
	{
		OFFSET 1.816360 0.000000 0.000000
		CHANNELS 6 Xposition Yposition Zposition Zrotation Xrotation Yrotation
		JOINT LeftLeg
		{
			OFFSET 0.000000 0.000001 -7.638980
			CHANNELS 6 Xposition Yposition Zposition Zrotation Xrotation Yrotation
			JOINT LeftFoot
			{
				OFFSET 0.000000 0.000001 -8.008600
				CHANNELS 6 Xposition Yposition Zposition Zrotation Xrotation Yrotation
				JOINT LeftToeBase
				{
					OFFSET 0.000000 -2.724540 -1.180634
					CHANNELS 6 Xposition Yposition Zposition Zrotation Xrotation Yrotation
					End Site
					{
						OFFSET 0.000000 -0.726542 0.000000
					}
				}
			}
		}
	}
	JOINT RightUpLeg
	{
		OFFSET -1.816360 0.000000 0.000000
		CHANNELS 6 Xposition Yposition Zposition Zrotation Xrotation Yrotation
		JOINT RightLeg
		{
			OFFSET 0.000000 0.000001 -7.638980
			CHANNELS 6 Xposition Yposition Zposition Zrotation Xrotation Yrotation
			JOINT RightFoot
			{
				OFFSET 0.000000 0.000001 -8.008600
				CHANNELS 6 Xposition Yposition Zposition Zrotation Xrotation Yrotation
				JOINT RightToeBase
				{
					OFFSET 0.000000 -2.724540 -1.180634
					CHANNELS 6 Xposition Yposition Zposition Zrotation Xrotation Yrotation
					End Site
					{
						OFFSET 0.000000 -0.726542 0.000000
					}
				}
			}
		}
	}
}
MOTION
Frames: 7
Frame Time: 0.041667
-0.673611 -0.372076 14.927923 0.502195 17.795233 -2.356183 -0.000000 -0.000000 5.553895 -4.259461 -19.793943 -8.684623 0.000000 -0.000001 4.427762 1.279993 13.486032 2.484063 0.000000 -0.363272 2.815358 1.746993 5.288080 5.717462 0.731534 0.096024 3.575177 0.709400 -8.164541 -18.298715 2.610321 -0.000001 -0.000002 -11.761395 -10.682604 4.206974 5.118421 0.000000 0.000002 2.127314 -4.450335 3.169331 4.756898 -0.000001 0.000002 18.336843 -4.875009 -2.275564 -0.721442 0.096024 3.575180 -4.643704 -1.094710 14.447187 -2.610320 -0.000000 0.000000 24.566792 18.839458 -26.725866 -5.118419 -0.000001 -0.000000 78.051529 38.184412 37.816835 -4.756900 0.000001 -0.000001 -6.521731 6.805897 32.010416 1.816360 0.000001 0.000002 17.241631 -38.298028 -14.330195 0.000000 0.000002 -7.638980 15.033426 33.966876 3.548426 0.000000 0.000001 -8.008601 17.442705 3.343606 6.407318 -0.000000 -2.724539 -1.180634 -0.000002 -0.000001 0.000000 -1.816360 0.000000 0.000000 13.169676 -25.665047 36.713650 0.000001 0.000002 -7.638980 -20.552615 30.775480 -15.453885 0.000000 0.000001 -8.008599 -26.684839 -4.183696 -12.193745 0.000000 -2.724541 -1.180634 0.000001 0.000002 0.000001 
-0.673369 -0.376156 14.929134 0.546358 17.759108 -2.341672 0.000000 0.000001 5.553892 -4.299317 -19.766363 -8.697357 0.000000 -0.000001 4.427760 1.289220 13.483829 2.488178 0.000000 -0.363273 2.815359 1.754756 5.351416 5.735391 0.731534 0.096024 3.575179 0.695265 -8.173363 -18.304729 2.610320 -0.000000 0.000004 -11.774244 -10.733469 4.239620 5.118420 -0.000000 -0.000001 2.152660 -4.429736 3.175802 4.756898 -0.000000 -0.000000 18.327016 -4.853876 -2.268269 -0.721441 0.096024 3.575181 -4.651824 -1.085284 14.452344 -2.610321 -0.000000 0.000002 24.568119 18.785764 -26.754713 -5.118418 -0.000000 -0.000001 78.115869 38.170188 37.730365 -4.756900 -0.000001 -0.000001 -6.495080 6.836989 32.065604 1.816360 0.000001 -0.000002 17.182886 -38.258072 -14.371850 0.000000 0.000002 -7.638980 15.029941 33.946238 3.550078 0.000000 0.000001 -8.008598 17.431244 3.352624 6.411147 0.000000 -2.724539 -1.180635 -0.000001 -0.000000 0.000001 -1.816360 0.000001 -0.000002 13.117574 -25.592422 36.663919 -0.000000 0.000001 -7.638982 -20.539832 30.737340 -15.459467 0.000000 0.000001 -8.008599 -26.710478 -4.178806 -12.214225 0.000001 -2.724539 -1.180633 -0.000003 -0.000002 -0.000000 
-0.672866 -0.377736 14.930073 0.554842 17.756926 -2.332938 0.000000 -0.000000 5.553895 -4.296799 -19.772505 -8.688684 0.000000 -0.000001 4.427763 1.295009 13.476131 2.462930 -0.000000 -0.363272 2.815361 1.762847 5.421102 5.800602 0.731534 0.096024 3.575179 0.682098 -8.177818 -18.319563 2.610319 -0.000001 -0.000001 -11.789250 -10.764889 4.278381 5.118421 -0.000001 -0.000001 2.173713 -4.398390 3.167426 4.756902 0.000001 0.000000 18.326026 -4.823091 -2.269132 -0.721443 0.096024 3.575181 -4.651357 -1.090219 14.438924 -2.610320 -0.000000 -0.000000 24.569029 18.752045 -26.785017 -5.118419 -0.000001 0.000003 78.149290 38.183903 37.676017 -4.756901 0.000001 0.000001 -6.458264 6.900354 32.013223 1.816360 0.000001 0.000001 17.261575 -38.273692 -14.324674 -0.000000 0.000001 -7.638978 14.970574 33.948523 3.537956 0.000000 0.000000 -8.008599 17.417879 3.355386 6.413151 0.000000 -2.724539 -1.180633 0.000000 -0.000001 -0.000001 -1.816360 0.000001 0.000001 13.108485 -25.586683 36.643046 0.000001 0.000001 -7.638980 -20.519135 30.732737 -15.448136 -0.000001 0.000001 -8.008601 -26.717689 -4.175366 -12.256879 0.000000 -2.724540 -1.180633 -0.000002 -0.000001 0.000000 
-0.672244 -0.379411 14.931113 0.570570 17.757363 -2.330684 0.000000 -0.000001 5.553895 -4.304609 -19.773799 -8.694885 -0.000000 -0.000001 4.427762 1.309702 13.463047 2.484872 -0.000000 -0.363271 2.815358 1.775380 5.482861 5.813825 0.731533 0.096024 3.575177 0.645627 -8.179781 -18.311184 2.610320 -0.000000 0.000004 -11.784511 -10.833859 4.297924 5.118420 0.000001 -0.000001 2.200528 -4.369452 3.189767 4.756899 0.000001 0.000003 18.306212 -4.798187 -2.289339 -0.721442 0.096024 3.575179 -4.663535 -1.091913 14.451372 -2.610320 -0.000000 0.000003 24.521603 18.654538 -26.787888 -5.118419 -0.000000 0.000005 78.296446 38.171441 37.495587 -4.756904 0.000001 0.000004 -6.462147 6.969209 32.029148 1.816360 0.000000 0.000001 17.247052 -38.268307 -14.325987 -0.000000 0.000002 -7.638982 14.969096 33.943001 3.536967 0.000000 0.000001 -8.008599 17.417824 3.359367 6.367405 0.000000 -2.724540 -1.180634 -0.000000 0.000001 -0.000000 -1.816360 -0.000000 0.000001 13.098156 -25.574491 36.628617 -0.000001 0.000002 -7.638982 -20.544466 30.723530 -15.429218 -0.000000 0.000001 -8.008599 -26.723438 -4.162076 -12.246324 0.000000 -2.724539 -1.180634 -0.000002 -0.000000 0.000000 
-0.672147 -0.381575 14.932430 0.576529 17.748375 -2.332957 -0.000000 -0.000001 5.553893 -4.288368 -19.770952 -8.681892 0.000000 -0.000001 4.427763 1.300173 13.457503 2.489628 0.000000 -0.363272 2.815362 1.767134 5.521317 5.855391 0.731534 0.096024 3.575180 0.641205 -8.175463 -18.336145 2.610319 -0.000001 -0.000003 -11.820417 -10.879354 4.350833 5.118421 -0.000000 0.000001 2.222330 -4.337105 3.206889 4.756899 -0.000001 -0.000000 18.317331 -4.766517 -2.286187 -0.721442 0.096024 3.575183 -4.691754 -1.098927 14.452171 -2.610321 -0.000000 -0.000003 24.541992 18.671087 -26.818798 -5.118419 0.000000 0.000005 78.277342 38.203820 37.527491 -4.756901 0.000001 0.000001 -6.465024 6.990566 32.014039 1.816360 0.000000 -0.000000 17.259741 -38.246577 -14.311084 -0.000000 0.000001 -7.638982 14.975460 33.920325 3.520132 0.000000 0.000001 -8.008599 17.401901 3.381422 6.381948 -0.000000 -2.724539 -1.180633 -0.000002 -0.000003 0.000000 -1.816360 0.000000 -0.000001 13.090939 -25.567695 36.616122 0.000000 0.000002 -7.638981 -20.560737 30.730199 -15.405989 -0.000000 0.000001 -8.008599 -26.731960 -4.137048 -12.208622 -0.000000 -2.724539 -1.180633 -0.000003 -0.000001 0.000001 
-0.671438 -0.382839 14.933132 0.590051 17.750528 -2.327158 0.000000 -0.000002 5.553892 -4.276765 -19.779985 -8.668498 -0.000000 -0.000000 4.427760 1.305076 13.444882 2.515565 0.000000 -0.363273 2.815360 1.767424 5.572844 5.835431 0.731534 0.096025 3.575180 0.631258 -8.167287 -18.362904 2.610319 -0.000000 -0.000001 -11.853435 -10.926775 4.381936 5.118419 0.000000 -0.000003 2.252232 -4.293379 3.239058 4.756899 -0.000000 -0.000000 18.358372 -4.723655 -2.277117 -0.721442 0.096025 3.575181 -4.706697 -1.103921 14.437381 -2.610321 -0.000000 -0.000002 24.543272 18.666552 -26.841096 -5.118420 -0.000002 0.000003 78.302252 38.227005 37.511037 -4.756901 0.000000 -0.000001 -6.491914 7.012756 32.022235 1.816360 -0.000000 -0.000003 17.235513 -38.241406 -14.324097 -0.000000 0.000002 -7.638981 14.957069 33.916715 3.539046 0.000000 0.000001 -8.008597 17.422114 3.371850 6.383989 -0.000000 -2.724540 -1.180634 -0.000003 0.000000 0.000000 -1.816360 -0.000000 -0.000002 13.081837 -25.559768 36.598042 0.000001 0.000001 -7.638981 -20.500217 30.704986 -15.421787 0.000001 0.000001 -8.008599 -26.792401 -4.136209 -12.257423 0.000000 -2.724539 -1.180633 -0.000001 -0.000002 0.000001 
-0.671464 -0.384055 14.934084 0.600029 17.752135 -2.320576 0.000000 -0.000000 5.553894 -4.270270 -19.785060 -8.658902 -0.000000 -0.000001 4.427760 1.319842 13.418155 2.542377 -0.000000 -0.363273 2.815359 1.777049 5.630825 5.813810 0.731533 0.096024 3.575178 0.636721 -8.165349 -18.380340 2.610320 -0.000001 0.000002 -11.904333 -10.946187 4.403449 5.118419 -0.000000 -0.000003 2.279804 -4.281094 3.269482 4.756899 -0.000002 0.000000 18.370267 -4.717653 -2.305906 -0.721442 0.096024 3.575178 -4.715059 -1.101301 14.435004 -2.610320 -0.000000 -0.000003 24.539104 18.644456 -26.861365 -5.118419 0.000001 -0.000004 78.376270 38.230543 37.453766 -4.756903 -0.000000 -0.000001 -6.511902 7.021764 32.038170 1.816360 0.000000 -0.000000 17.272116 -38.252399 -14.298070 -0.000001 0.000002 -7.638980 14.928681 33.912743 3.524441 0.000001 0.000001 -8.008599 17.415078 3.385779 6.419935 0.000000 -2.724540 -1.180633 0.000002 -0.000002 -0.000001 -1.816360 0.000000 -0.000001 13.075801 -25.558636 36.579891 -0.000001 0.000001 -7.638980 -20.475780 30.697578 -15.414960 0.000001 0.000001 -8.008599 -26.821212 -4.110812 -12.226539 -0.000000 -2.724540 -1.180632 0.000001 -0.000002 0.000001 
